HIERARCHY
ROOT Hips
{
	OFFSET 0.00000 0.00000 0.00000
	CHANNELS 6 Xposition Yposition Zposition Zrotation Yrotation Xrotation 
	JOINT LHipJoint
	{
		OFFSET 0 0 0
		CHANNELS 3 Zrotation Yrotation Xrotation
		JOINT LeftHip
		{
			OFFSET 1.70593 -1.62653 0.87602
			CHANNELS 3 Zrotation Yrotation Xrotation
			JOINT LeftKnee
			{
				OFFSET 2.32330 -6.38322 0.00000
				CHANNELS 3 Zrotation Yrotation Xrotation
				JOINT LeftAnkle
				{
					OFFSET 2.45016 -6.73177 0.00000
					CHANNELS 3 Zrotation Yrotation Xrotation
					JOINT LeftToe
					{
						OFFSET 0.13029 -0.35798 1.96980
						CHANNELS 3 Zrotation Yrotation Xrotation
						End Site
						{
							OFFSET 0.00000 -0.00000 1.01270
						}
					}
				}
			}
		}
	}
	JOINT RHipJoint
	{
		OFFSET 0 0 0
		CHANNELS 3 Zrotation Yrotation Xrotation
		JOINT RightHip
		{
			OFFSET -1.80599 -1.62652 0.87602
			CHANNELS 3 Zrotation Yrotation Xrotation
			JOINT RightKnee
			{
				OFFSET -2.45375 -6.74162 0.00000
				CHANNELS 3 Zrotation Yrotation Xrotation
				JOINT RightAnkle
				{
					OFFSET -2.45828 -6.75406 0.00000
					CHANNELS 3 Zrotation Yrotation Xrotation
					JOINT RightToe
					{
						OFFSET -0.13801 -0.37917 1.88456
						CHANNELS 3 Zrotation Yrotation Xrotation
						End Site
						{
							OFFSET -0.00000 -0.00000 0.97281
						}
					}
				}
			}
		}
	}
	JOINT lowerback
	{
		OFFSET 0 0 0
		CHANNELS 3 Zrotation Yrotation Xrotation
		JOINT Chest
		{
			OFFSET 0.01003 2.00576 -0.14267
			CHANNELS 3 Zrotation Yrotation Xrotation
			JOINT Chest2
			{
				OFFSET 0.00908 2.01191 0.01660
				CHANNELS 3 Zrotation Yrotation Xrotation
				JOINT lowerneck
				{
					OFFSET 0 0 0
					CHANNELS 3 Zrotation Yrotation Xrotation
					JOINT Neck
					{
						OFFSET -0.05849 1.60301 0.18934
						CHANNELS 3 Zrotation Yrotation Xrotation
						JOINT Head
						{
							OFFSET 0.01775 1.59435 -0.07960
							CHANNELS 3 Zrotation Yrotation Xrotation
							End Site
							{
								OFFSET 0.01210 1.70732 -0.05248
							}
						}
					}
				}
				JOINT LeftCollar
				{
					OFFSET 0 0 0
					CHANNELS 3 Zrotation Yrotation Xrotation
					JOINT LeftShoulder
					{
						OFFSET 3.15315 1.26460 0.30667
CHANNELS 3 Zrotation Xrotation Yrotation
						JOINT LeftElbow
						{
OFFSET 0 -4.976940 -0.000000
CHANNELS 3 Zrotation Xrotation Yrotation
							JOINT LeftWrist
							{
OFFSET 0 -3.143910 -0.000000
CHANNELS 3 Zrotation Xrotation Yrotation
								JOINT lhand
								{
									OFFSET 0 0 0
CHANNELS 3 Zrotation Xrotation Yrotation
									JOINT LFingers
									{
OFFSET 0 -0.593580 -0.000000
CHANNELS 3 Zrotation Xrotation Yrotation
										End Site
										{
OFFSET 0 -0.478560 -0.000000
										}
									}
								}
								JOINT LThumb
								{
OFFSET 0 0.000000 0.000000
CHANNELS 3 Zrotation Xrotation Yrotation
									End Site
									{
OFFSET 0 -0.485870 0.485870
									}
								}
							}
						}
					}
				}
				JOINT RightCollar
				{
					OFFSET 0 0 0
					CHANNELS 3 Zrotation Yrotation Xrotation
					JOINT RightShoulder
					{
						OFFSET -3.25568 1.35581 0.18982
CHANNELS 3 Zrotation Xrotation Yrotation
						JOINT RightElbow
						{
OFFSET 0 -4.904730 0.000000
CHANNELS 3 Zrotation Xrotation Yrotation
							JOINT RightWrist
							{
OFFSET 0 -3.216210 -0.000040
CHANNELS 3 Zrotation Xrotation Yrotation
								JOINT rhand
								{
									OFFSET 0 0 0
CHANNELS 3 Zrotation Xrotation Yrotation
									JOINT RFingers
									{
OFFSET 0 -0.623530 -0.000000
CHANNELS 3 Zrotation Xrotation Yrotation
										End Site
										{
OFFSET 0 -0.502700 -0.000000
										}
									}
								}
								JOINT RThumb
								{
OFFSET 0 0.000000 0.000000
CHANNELS 3 Zrotation Xrotation Yrotation
									End Site
									{
OFFSET 0 -0.510380 0.510380
									}
								}
							}
						}
					}
				}
			}
		}
	}
}
MOTION
Frames: 11
Frame Time: .0083333
7.1998 15.3951 -37.2754 2.4139 -3.0204 6.1014 0.0000 0.0000 0.0000 -26.8708 -2.5485 -10.7335 2.6652 10.1323 29.4061 0.7208 -11.3659 -16.0127 0.3866 3.9926 11.0558 0.0000 0.0000 0.0000 18.3439 13.1612 -36.7486 -9.4795 -17.1066 57.7342 -0.8354 5.6897 -16.2939 -0.9912 6.3365 -17.7641 -3.5722 1.2167 1.8452 0.1311 1.4878 -3.2516 2.0506 0.8643 -4.4901 -4.5710 0.9263 -10.3665 2.8283 1.6017 11.2456 1.7416 0.7799 5.0189 0.0000 -0.0000 0.0000 2.0451 -4.0293 -21.7358 11.9299 -19.6994 2.0786 19.2576 -9.5135 8.7524 0.0 0.0 0.0 -7.1250 0.0 0.0 -5.4990 20.7366 -3.2103 0.0000 -0.0000 0.0000 2.522 16.2226 7.7478 -11.9914 -19.7917 -2.0994 -21.5785 13.3031 38.1586 0.0 0.0 0.0 7.1250 0.0 -0.0 19.1143 69.3038 -11.2718
7.1954 15.3894 -37.0435 3.3164 -2.9291 6.3056 0.0000 0.0000 0.0000 -27.9024 -2.0549 -9.4316 2.4289 9.7075 28.0345 0.5739 -12.3471 -14.9776 0.8899 6.0129 16.8218 0.0000 0.0000 0.0000 17.2815 13.4249 -37.9450 -8.8412 -16.7045 55.5394 -0.8299 6.6518 -16.2582 -0.4753 4.4215 -12.2657 -4.8388 1.1318 1.5370 0.0538 1.3370 -3.2524 2.6951 0.8278 -4.3417 -4.9553 0.8356 -10.8463 3.2517 1.5040 11.7077 1.9392 0.7430 5.2399 0.0000 -0.0000 0.0000 2.3716 -5.4307 -23.7087 12.6698 -20.8014 2.3347 19.7474 -11.0837 8.0839 0.0 0.0 0.0 -7.1250 0.0 0.0 -5.1452 21.4122 -2.9233 0.0000 -0.0000 0.0000 2.6263 16.9295 5.4064 -11.1002 -18.4417 -1.8075 -22.5797 16.4355 38.1131 0.0 0.0 0.0 7.1250 0.0 -0.0 17.7934 69.581 -10.5844
7.1905 15.3745 -36.8040 3.9292 -2.7164 6.4294 0.0000 0.0000 0.0000 -28.5114 -1.3031 -8.0836 2.2110 9.2924 26.7144 0.7042 -11.3700 -15.8631 0.0015 0.2499 0.6865 0.0000 0.0000 0.0000 16.6165 13.5145 -38.8681 -8.1012 -16.1932 52.9263 -0.8252 7.1552 -16.2416 -0.5414 4.7144 -13.0958 -5.7190 1.0058 1.2882 -0.0170 1.1503 -3.2388 3.1298 0.7587 -4.1934 -4.9800 0.8071 -10.8177 3.3758 1.4517 11.6619 1.9776 0.7252 5.2217 0.0000 0.0000 0.0000 2.919 -6.7811 -25.4736 13.4189 -21.8979 2.6074 19.7407 -13.2148 8.2721 0.0 0.0 0.0 -7.1250 0.0 0.0 -5.1501 21.2139 -2.9492 0.0000 0.0000 0.0000 2.88 17.5438 2.4406 -10.1288 -16.9407 -1.5122 -23.5853 20.1996 37.4403 0.0 0.0 0.0 7.1250 0.0 -0.0 15.6610 69.2715 -9.1846
7.1935 15.3672 -36.5645 3.9891 -2.2453 6.5142 0.0000 0.0000 0.0000 -28.5093 -0.8998 -6.6623 2.0399 8.9486 25.6348 0.6700 -11.7336 -15.6592 0.0229 -0.9765 -2.6842 0.0000 0.0000 0.0000 16.5483 13.4716 -39.5654 -7.2996 -15.5790 49.9984 -0.8511 7.2344 -16.4946 -0.4700 4.3970 -12.1962 -5.9205 0.8006 1.0355 0.0691 0.8936 -3.1234 3.3501 0.6286 -3.9103 -4.8280 0.8184 -10.7430 3.2965 1.4522 11.3577 1.9238 0.7286 5.1163 0.0000 0.0000 0.0000 3.4379 -8.0949 -27.331 14.3185 -23.1881 2.9523 20.6205 -15.2935 8.1524 0.0 0.0 0.0 -7.1250 0.0 0.0 -4.5127 21.2889 -2.5742 0.0000 0.0000 0.0000 3.0762 18.0954 -0.8778 -9.3031 -15.6421 -1.2806 -22.9675 24.3815 37.145 0.0 0.0 0.0 7.1250 0.0 -0.0 16.0973 68.7983 -9.2746
7.1976 15.3849 -36.3347 3.3874 -1.7260 6.6761 0.0000 0.0000 0.0000 -27.7615 -0.3967 -5.5641 1.8929 8.6393 24.6733 0.6547 -11.7707 -15.5314 0.1240 -2.2700 -6.2524 0.0000 0.0000 0.0000 17.2214 13.4393 -39.9563 -6.4156 -14.8194 46.6279 -0.8225 7.2279 -16.2209 -0.3273 3.6771 -10.1700 -5.3942 0.6719 1.0295 0.3141 0.7456 -3.1489 3.3160 0.5436 -3.9109 -4.8088 0.7398 -10.6815 3.3510 1.3349 11.1574 1.9266 0.6769 5.0485 -0.0000 -0.0000 0.0000 3.75 -9.4247 -28.4586 15.0706 -24.2444 3.2549 21.62 -16.4062 7.7741 0.0 0.0 0.0 -7.1250 0.0 0.0 -3.7840 21.6325 -2.1271 -0.0000 -0.0000 0.0000 3.4318 18.7727 -5.8066 -8.6095 -14.536 -1.1 -19.9921 28.8939 36.7315 0.0 0.0 0.0 7.1250 0.0 -0.0 19.2802 67.5001 -10.5917
7.1964 15.4052 -36.1074 3.0135 -1.2681 6.9435 0.0000 0.0000 0.0000 -27.1096 0.8628 -4.7968 1.7549 8.3358 23.7388 0.5812 -12.3667 -15.0530 0.3323 -3.7047 -10.2474 0.0000 0.0000 0.0000 17.4999 13.7870 -40.2405 -5.5218 -13.9484 43.0310 -0.8000 6.9012 -15.9797 -0.3381 3.7364 -10.3362 -5.1027 0.5944 1.0769 0.4532 0.6493 -3.2958 3.3001 0.4964 -4.0781 -4.7369 0.6183 -10.5705 3.4056 1.1489 11.0147 1.9162 0.5928 4.9936 0.0000 0.0000 0.0000 4.2358 -10.7934 -29.7692 15.6754 -25.0786 3.5073 22.1156 -18.2082 7.8981 0.0 0.0 0.0 -7.1250 0.0 0.0 -3.4255 21.4694 -1.9375 0.0000 0.0000 0.0000 3.9175 19.5655 -11.1136 -8.0144 -13.5763 -0.9555 -17.9444 33.2475 36.262 0.0 0.0 0.0 7.1250 0.0 -0.0 21.1525 66.4634 -11.158
7.1943 15.4075 -35.8670 3.0594 -0.9045 7.1172 0.0000 0.0000 0.0000 -26.9597 2.0866 -3.7831 1.5866 7.9461 22.5504 0.4937 -12.8412 -14.4132 0.5600 -4.7933 -13.3201 0.0000 0.0000 0.0000 16.9868 14.8994 -40.1912 -4.6965 -13.0337 39.4946 -0.8421 6.2616 -16.3642 -0.2915 3.4720 -9.5958 -5.2963 0.5126 0.9947 0.5486 0.5415 -3.3236 3.5138 0.4507 -4.0547 -4.7956 0.4909 -10.6966 3.4435 0.9871 11.0148 1.9271 0.5146 5.0211 -0.0000 -0.0000 0.0000 4.671 -12.2385 -31.1835 16.1554 -25.7309 3.7132 22.7486 -20.5511 9.0973 0.0 0.0 0.0 -7.1250 0.0 0.0 -2.9945 20.1362 -1.783 -0.0000 -0.0000 0.0000 4.1154 20.4311 -14.9113 -7.5676 -12.8495 -0.8534 -17.8069 36.4123 36.1684 0.0 0.0 0.0 7.1250 0.0 -0.0 21.2050 66.3382 -11.1261
7.1937 15.4090 -35.6264 3.1155 -0.5345 7.2250 0.0000 0.0000 0.0000 -26.8809 2.9683 -2.3556 1.3932 7.4674 21.1076 0.4786 -12.6058 -14.1747 0.9324 -6.1510 -17.2231 0.0000 0.0000 0.0000 16.3015 16.0980 -40.0377 -3.9508 -12.0947 36.0677 -0.8646 5.4014 -16.5857 -0.1595 2.5731 -7.0925 -5.4751 0.4225 1.0820 0.6314 0.4111 -3.4074 3.7064 0.3986 -4.1825 -4.8250 0.4040 -10.8976 3.5140 0.8722 11.2171 1.9490 0.4619 5.1220 0.0000 -0.0000 0.0000 4.7232 -13.6045 -31.3462 16.5920 -26.3167 3.9047 23.6264 -21.3679 10.1939 0.0 0.0 0.0 -7.1250 0.0 0.0 -2.4055 18.8809 -1.499 0.0000 -0.0000 0.0000 4.4619 21.5284 -18.6861 -7.2960 -12.4053 -0.794 -17.6387 39.5787 36.0196 0.0 0.0 0.0 7.1250 0.0 -0.0 21.2307 66.1539 -11.0508
7.1942 15.3663 -35.3903 3.2621 -0.0606 7.4159 0.0000 0.0000 0.0000 -26.8282 3.2974 -0.6230 1.1540 6.8205 19.1846 0.1753 -13.9063 -11.7383 0.1395 -2.4076 -6.6335 0.0000 0.0000 0.0000 15.5875 16.6687 -40.4244 -3.3335 -11.2162 33.0126 -0.8224 4.7672 -16.1933 -0.0899 1.9342 -5.3238 -5.6523 0.2891 1.0091 0.6200 0.2309 -3.4232 3.8031 0.3136 -4.1407 -4.4889 0.3142 -10.9786 3.3350 0.7243 11.1125 1.8268 0.3928 5.1117 -0.0000 0.0000 0.0000 4.9459 -15.1251 -31.1219 17.2852 -27.2322 4.217 23.6177 -22.0077 9.9727 0.0 0.0 0.0 -7.1250 0.0 0.0 -2.4030 19.1214 -1.4846 -0.0000 0.0000 0.0000 5.0734 22.4273 -22.2275 -7.1331 -12.1381 -0.7594 -17.9843 43.0164 36.0838 0.0 0.0 0.0 7.1250 0.0 -0.0 20.9037 66.3125 -10.9498
7.1924 15.3545 -35.1482 3.6854 0.2919 7.6472 0.0000 0.0000 0.0000 -27.0989 3.9914 0.8916 0.8995 6.0444 16.9133 0.0441 -13.6963 -10.1415 0.0916 -1.9516 -5.3720 0.0000 0.0000 0.0000 14.7531 16.7951 -40.9332 -2.7993 -10.3628 30.1597 -0.7744 4.8730 -15.6976 -0.0778 1.7993 -4.9513 -6.1355 0.1618 0.5361 0.5745 0.0816 -3.2453 4.0344 0.2354 -3.6748 -4.2842 0.2083 -10.8154 3.1380 0.5747 10.4575 1.7145 0.3173 4.8890 0.0000 -0.0000 0.0000 5.4011 -16.7082 -31.6133 18.1345 -28.3291 4.6129 23.4753 -23.3857 9.3468 0.0 0.0 0.0 -7.1250 0.0 0.0 -2.4817 19.8113 -1.4951 0.0000 -0.0000 0.0000 5.4033 23.0369 -24.8371 -7.0855 -12.0599 -0.7494 -17.573 46.1357 38.0263 0.0 0.0 0.0 7.1250 0.0 -0.0 23.7667 67.9373 -13.3917
7.1872 15.3509 -34.9039 4.2552 0.5984 7.9563 0.0000 0.0000 0.0000 -27.5294 4.5740 2.6205 0.6651 5.2157 14.5249 -0.0120 -13.2247 -9.1291 0.1421 -2.4296 -6.6946 0.0000 0.0000 0.0000 13.4787 17.3806 -41.4376 -2.3504 -9.5607 27.5655 -0.7905 5.0601 -15.8565 -0.0556 1.5221 -4.1868 -6.8409 0.1059 0.4956 0.5142 -0.0167 -3.4533 4.3729 0.2190 -3.8649 -4.4637 0.1386 -10.6295 3.3117 0.4832 10.2128 1.7885 0.2767 4.7848 0.0000 -0.0000 0.0000 5.6305 -17.6264 -32.4354 19.0195 -29.443 5.0405 23.7354 -24.4437 8.8993 0.0 0.0 0.0 -7.1250 0.0 0.0 -2.2802 20.2769 -1.3497 0.0000 -0.0000 0.0000 5.7277 24.2919 -27.353 -7.0890 -12.0656 -0.7501 -16.5627 48.287 39.7946 0.0 0.0 0.0 7.1250 0.0 -0.0 27.4815 69.1538 -16.3417
